<svg version="1.1" id="Layer_1" xmlns="http://www.w3.org/2000/svg" x="0" y="0" viewBox="0 0 500 500" style="enable-background:new 0 0 500 500" xml:space="preserve"><style>.st0{fill:#fddf7f}.st1{fill:#ecf4f7}.st2{fill:#83e1e5}</style><path class="st0" d="m130.577 430.585 35.134-33.721-33.465-33.465-32.233 24.861zM369.423 430.585l-35.134-33.721 33.465-33.465 32.233 24.861z"/><path class="st1" d="m200.786 369.405-38.883-38.883a7.652 7.652 0 0 0-10.823 0l-4.81 4.81a7.652 7.652 0 0 0 0 10.823 7.652 7.652 0 0 0-10.823 0l-4.81 4.81a7.652 7.652 0 0 0 0 10.823l38.883 38.883a7.652 7.652 0 0 0 10.823 0l4.81-4.81a7.652 7.652 0 0 0 0-10.823 7.652 7.652 0 0 0 10.823 0l4.81-4.81a7.652 7.652 0 0 0 0-10.823zM369.364 350.966l-4.81-4.81a7.652 7.652 0 0 0-10.823 0 7.652 7.652 0 0 0 0-10.823l-4.81-4.81a7.652 7.652 0 0 0-10.823 0l-38.883 38.883a7.652 7.652 0 0 0 0 10.823l4.81 4.81a7.652 7.652 0 0 0 10.823 0 7.652 7.652 0 0 0 0 10.823l4.81 4.81a7.652 7.652 0 0 0 10.823 0l38.883-38.883a7.652 7.652 0 0 0 0-10.823z"/><path class="st0" d="M308.688 316.046a21.624 21.624 0 0 1-7.206-23.04l2.441-8.207a100.693 100.693 0 0 0-4.19-68.896l-30.138-69.232a15.032 15.032 0 0 0-13.782-9.031h-11.625a15.03 15.03 0 0 0-13.781 9.031l-30.138 69.232a100.693 100.693 0 0 0-4.19 68.896l2.441 8.207a21.625 21.625 0 0 1-7.206 23.04l-24.365 19.52 29.907 29.907 41.044-41.044a41.324 41.324 0 0 0 12.1-29.217 41.32 41.32 0 0 0 12.102 29.217l41.044 41.044 29.907-29.907-24.365-19.52z"/><path class="st2" d="m303.146 365.473-41.044-41.044A41.318 41.318 0 0 1 250 295.212a41.318 41.318 0 0 1-12.102 29.217l-41.044 41.044 3.932 3.932c2.942 2.942 2.981 7.68.131 10.678 15.419 5.17 31.923 7.976 49.082 7.976s33.663-2.806 49.082-7.976c-2.85-2.998-2.811-7.736.131-10.678l3.934-3.932z"/><path class="st2" d="M250 79.48c-85.212 0-154.29 69.078-154.29 154.29 0 43.198 17.761 82.243 46.369 110.25a7.61 7.61 0 0 1 4.19 2.136 7.652 7.652 0 0 1 0-10.823l4.81-4.81a7.652 7.652 0 0 1 10.823 0l5.044 5.044 24.365-19.52a21.624 21.624 0 0 0 7.206-23.04l-2.441-8.207a100.693 100.693 0 0 1 4.19-68.896l30.138-69.232a15.032 15.032 0 0 1 13.781-9.031h11.627a15.032 15.032 0 0 1 13.782 9.031l30.138 69.232a100.693 100.693 0 0 1 4.19 68.896l-2.441 8.207a21.625 21.625 0 0 0 7.206 23.04l24.365 19.52 5.044-5.044a7.652 7.652 0 0 1 10.823 0l4.81 4.81a7.652 7.652 0 0 1 0 10.823 7.61 7.61 0 0 1 4.19-2.136c28.608-28.008 46.369-67.052 46.369-110.25C404.29 148.558 335.212 79.48 250 79.48z"/><path d="M266.334 453.787a5 5 0 0 1-5 5H255v6.334a5 5 0 0 1-10 0v-6.334h-6.334a5 5 0 0 1 0-10H245v-6.334a5 5 0 0 1 10 0v6.334h6.334a5 5 0 0 1 5 5zm168.104-117.152h-6.333v-6.334a5 5 0 0 0-10 0v6.334h-6.334a5 5 0 0 0 0 10h6.334v6.334a5 5 0 0 0 10 0v-6.334h6.333a5 5 0 0 0 0-10zm-346.208 0h-6.334v-6.334a5 5 0 0 0-10 0v6.334h-6.333a5 5 0 0 0 0 10h6.333v6.334a5 5 0 0 0 10 0v-6.334h6.334a5 5 0 0 0 0-10zm193.806 42.976c-20.815 4.553-42.943 4.575-63.767.066a5 5 0 1 0-2.116 9.773A160.202 160.202 0 0 0 250 393.058a160.19 160.19 0 0 0 34.173-3.679 5 5 0 1 0-2.137-9.768zM121.539 327.94a5 5 0 1 0 8.059-5.92c-18.898-25.733-28.888-56.249-28.888-88.251 0-82.319 66.971-149.29 149.29-149.29s149.29 66.971 149.29 149.29c0 32.002-9.989 62.519-28.888 88.251a5 5 0 1 0 8.06 5.919c20.168-27.461 30.828-60.025 30.828-94.171 0-87.833-71.457-159.29-159.29-159.29S90.71 145.937 90.71 233.769c0 34.146 10.661 66.71 30.829 94.171zm9.038 157.587a5 5 0 0 0-5 5V495a5 5 0 0 0 10 0v-4.473a5 5 0 0 0-5-5zm238.846 0a5 5 0 0 0-5 5V495a5 5 0 0 0 10 0v-4.473a5 5 0 0 0-5-5zm34.523-94.213a5 5 0 0 1-7.013.906l-28.752-22.176-26.748 26.748 29.992 28.785a9.8 9.8 0 0 1 2.998 7.033v42.512a5 5 0 0 1-10 0v-42.405l-30.063-28.853-.344.344c-2.39 2.39-5.567 3.706-8.947 3.706s-6.557-1.316-8.947-3.707l-4.811-4.81a12.569 12.569 0 0 1-3.573-7.251 12.566 12.566 0 0 1-7.25-3.573l-4.81-4.811c-4.934-4.934-4.934-12.961 0-17.895l.397-.397-37.508-37.508a46.438 46.438 0 0 1-8.566-11.768 46.48 46.48 0 0 1-8.566 11.768l-37.508 37.508.397.397c4.934 4.934 4.934 12.961 0 17.895l-4.81 4.81a12.575 12.575 0 0 1-7.25 3.573 12.572 12.572 0 0 1-3.573 7.251l-4.811 4.81c-2.39 2.39-5.567 3.706-8.947 3.706s-6.557-1.316-8.947-3.706l-.344-.344-30.063 28.853v42.405a5 5 0 0 1-10 0v-42.512a9.795 9.795 0 0 1 2.997-7.032l29.993-28.786-18.222-18.222-8.526-8.526-28.752 22.176a5 5 0 0 1-6.108-7.919l28.101-21.674c-2.743-4.828-2.072-11.084 2.04-15.197l4.811-4.811a12.575 12.575 0 0 1 7.25-3.573 12.572 12.572 0 0 1 3.573-7.251l4.81-4.81c4.934-4.934 12.961-4.933 17.895 0l1.878 1.878 20.87-16.72a16.56 16.56 0 0 0 5.54-17.712l-2.441-8.206a105.845 105.845 0 0 1 4.398-72.317l30.139-69.233a20.026 20.026 0 0 1 18.366-12.035h11.625a20.025 20.025 0 0 1 18.366 12.036l30.139 69.232a105.845 105.845 0 0 1 4.398 72.317l-2.441 8.207a16.558 16.558 0 0 0 5.54 17.712l20.87 16.72 1.877-1.877c4.934-4.933 12.961-4.933 17.895 0l4.81 4.811a12.57 12.57 0 0 1 3.573 7.25 12.566 12.566 0 0 1 7.25 3.573l4.811 4.81c4.112 4.113 4.783 10.369 2.04 15.197l28.101 21.674a5.005 5.005 0 0 1 .901 7.014zm-222.329-2.74-38.883-38.883c-.501-.501-1.167-.777-1.876-.777s-1.375.276-1.876.777l-4.811 4.81a2.657 2.657 0 0 0 0 3.752l1.608 1.608.003.002 17.832 17.832 19.442 19.441c1.002 1.002 2.75 1.002 3.751 0l4.811-4.811a2.655 2.655 0 0 0-.001-3.751zm15.633-15.633-38.883-38.883c-.517-.517-1.197-.776-1.876-.776s-1.359.259-1.876.776l-4.81 4.81a2.655 2.655 0 0 0 0 3.752l38.883 38.883c1.002 1.002 2.75 1.002 3.752 0l4.81-4.81a2.655 2.655 0 0 0 0-3.752zm105.896-14.539 22.424-22.424-20.008-16.03c-8.491-6.803-11.974-17.938-8.872-28.367l2.441-8.207a95.832 95.832 0 0 0-3.982-65.475l-30.139-69.232a10.029 10.029 0 0 0-9.197-6.027h-11.625a10.029 10.029 0 0 0-9.197 6.027L204.852 217.9a95.832 95.832 0 0 0-3.982 65.475l2.441 8.206c3.102 10.429-.381 21.564-8.872 28.367l-20.008 16.03 22.424 22.424 37.508-37.508c6.86-6.86 10.638-15.98 10.638-25.681v-64.224a6.372 6.372 0 0 0-6.365-6.365 6.372 6.372 0 0 0-6.364 6.365v29.948c0 4.955-1.929 9.612-5.433 13.115l-4.489 4.49a5 5 0 0 1-7.071 0 5 5 0 0 1 0-7.071l4.49-4.49a8.49 8.49 0 0 0 2.504-6.044v-29.948c0-9.023 7.341-16.365 16.364-16.365 2.258 0 4.406.465 6.365 1.295v-45.495a5 5 0 0 1 10 0v45.495a16.267 16.267 0 0 1 6.365-1.295c9.023 0 16.364 7.341 16.364 16.365v29.948c0 2.283.889 4.43 2.503 6.044l4.49 4.49a5 5 0 0 1-3.536 8.536 4.987 4.987 0 0 1-3.536-1.464l-4.49-4.49a18.427 18.427 0 0 1-5.433-13.115V230.99a6.372 6.372 0 0 0-6.364-6.365A6.372 6.372 0 0 0 255 230.99v64.224c0 9.701 3.778 18.822 10.638 25.681l37.508 37.507zm4.414 23.101c1.002 1.002 2.75 1.002 3.752 0l38.883-38.883a2.655 2.655 0 0 0 0-3.752l-4.81-4.811a2.646 2.646 0 0 0-1.876-.776c-.68 0-1.359.259-1.876.776L302.75 372.94a2.655 2.655 0 0 0 0 3.752l4.81 4.811zm19.385 15.634 38.884-38.883a2.657 2.657 0 0 0 0-3.752l-4.811-4.81c-1.002-1.002-2.75-1.002-3.752 0l-38.883 38.883a2.655 2.655 0 0 0 0 3.752l4.811 4.81c1.001 1.003 2.749 1.002 3.751 0zM250 147.368a5 5 0 0 0-5 5v3.313a5 5 0 0 0 10 0v-3.313a5 5 0 0 0-5-5zm0-81.708a5 5 0 0 0 5-5V28.854a5 5 0 0 0-10 0V60.66a5 5 0 0 0 5 5zm0-52.016a5 5 0 0 0 5-5V5a5 5 0 0 0-10 0v3.644a5 5 0 0 0 5 5zm122.407 102.719a4.988 4.988 0 0 0 3.536-1.464l22.49-22.49a5 5 0 1 0-7.071-7.071l-22.49 22.49a5 5 0 0 0 3.535 8.535zm36.781-36.781c1.28 0 2.56-.488 3.536-1.465l2.577-2.577a5 5 0 1 0-7.071-7.07l-2.577 2.577a5 5 0 0 0 3.535 8.535zm45.727 149.187h-31.806a5 5 0 0 0 0 10h31.806a5 5 0 0 0 0-10zm23.855 0h-3.645a5 5 0 0 0 0 10h3.645a5 5 0 0 0 0-10zm-396.879 5a5 5 0 0 0-5-5H45.085a5 5 0 0 0 0 10h31.806a5 5 0 0 0 5-5zm-57.016-5H21.23a5 5 0 0 0 0 10h3.645a5 5 0 0 0 0-10zm99.183-113.871c.977.976 2.256 1.464 3.536 1.464s2.559-.488 3.536-1.465a5 5 0 0 0 0-7.071l-22.49-22.49a5 5 0 0 0-7.071 7.071l22.489 22.491zM87.277 78.117a4.982 4.982 0 0 0 3.536 1.465 5 5 0 0 0 3.535-8.535l-2.577-2.577a5 5 0 1 0-7.071 7.07l2.577 2.577z" style="fill:#1c1d21"/></svg>
